<svg width="32" height="32" viewBox="0 0 32 32" fill="none" xmlns="http://www.w3.org/2000/svg">
<mask id="mask0_1_476" style="mask-type:alpha" maskUnits="userSpaceOnUse" x="2" y="2" width="28" height="28">
<path fill-rule="evenodd" clip-rule="evenodd" d="M16 2.66669C8.64 2.66669 2.66667 8.64002 2.66667 16C2.66667 23.36 8.64 29.3334 16 29.3334C23.36 29.3334 29.3333 23.36 29.3333 16C29.3333 8.64002 23.36 2.66669 16 2.66669ZM16 26.6667C10.1067 26.6667 5.33334 21.8934 5.33334 16C5.33334 13.5334 6.17334 11.2667 7.58667 9.46669L22.5333 24.4134C20.7333 25.8267 18.4667 26.6667 16 26.6667ZM9.46667 7.58669L24.4133 22.5334C25.8267 20.7334 26.6667 18.4667 26.6667 16C26.6667 10.1067 21.8933 5.33335 16 5.33335C13.5333 5.33335 11.2667 6.17335 9.46667 7.58669Z" fill="white"/>
</mask>
<g mask="url(#mask0_1_476)">
<path d="M32 0H0V32H32V0Z" fill="white"/>
</g>
</svg>
