<svg width="32" height="32" viewBox="0 0 32 32" fill="none" xmlns="http://www.w3.org/2000/svg">
<path fill-rule="evenodd" clip-rule="evenodd" d="M29.3333 16C29.3333 8.63618 23.3638 2.66665 16 2.66665C8.63621 2.66665 2.66667 8.63618 2.66667 16C2.66667 23.3638 8.63621 29.3333 16 29.3333C23.3638 29.3333 29.3333 23.3638 29.3333 16ZM26.6667 16C26.6667 10.1089 21.891 5.33331 16 5.33331C10.109 5.33331 5.33334 10.1089 5.33334 16C5.33334 21.891 10.109 26.6666 16 26.6666C21.891 26.6666 26.6667 21.891 26.6667 16ZM21.0455 10.8204L22.9255 12.7137L14.7877 20.8271C14.5923 21.0218 14.2762 21.0216 14.0811 20.8266L9.73011 16.4755L11.6157 14.5899L14.4331 17.4073L21.0455 10.8204Z" fill="white"/>
</svg>
